<svg id="Capa_1" enable-background="new 0 0 512 512" height="512" viewBox="0 0 512 512" width="512" xmlns="http://www.w3.org/2000/svg"><g><g><path d="m42.452 39.526v331.85c0 7.17 5.867 13.037 13.037 13.037h401.015c7.17 0 13.037-5.867 13.037-13.037 0-4.087 0-259.731 0-331.85z" fill="#ff656f"/><path d="m91.945 371.376c0-3.71 0-259.588 0-331.85h-49.493v331.85c0 7.17 5.867 13.037 13.037 13.037h49.494c-7.171 0-13.038-5.867-13.038-13.037z" fill="#ff4756"/><path d="m456.504 7.774h-401.015c-7.17 0-13.037 5.867-13.037 13.037v19.714h427.089v-19.714c0-7.17-5.867-13.037-13.037-13.037z" fill="#ff4756"/><path d="m104.982 7.774h-49.493c-7.17 0-13.037 5.867-13.037 13.037v19.714h49.494v-19.714c-.001-7.17 5.866-13.037 13.036-13.037z" fill="#fc2d39"/><g><path d="m443.713 236.537c-8.275 0-17.839 3.024-23.665 8.018v39.283c6.696 4.078 11.714 10.632 13.794 18.389 2.525.612 7.158.944 9.871.944 18.4 0 33.317-14.916 33.317-33.317s-14.917-33.317-33.317-33.317z" fill="#dfebfa"/></g><path d="m453.884 269.854c0-10.088 4.49-19.121 11.573-25.231-5.836-5.034-13.432-8.086-21.744-8.086-8.275 0-17.839 3.024-23.665 8.017v39.283c6.696 4.078 11.714 10.632 13.794 18.389 2.524.612 7.158.944 9.871.944 8.313 0 15.908-3.051 21.744-8.086-7.083-6.109-11.573-15.142-11.573-25.23z" fill="#b1dbfc"/><g><path d="m91.945 283.838v-39.283c-5.826-4.994-15.39-8.018-23.665-8.018-18.4 0-33.317 14.916-33.317 33.317s14.916 33.317 33.317 33.317c2.713 0 7.346-.332 9.871-.944 2.08-7.757 7.098-14.311 13.794-18.389z" fill="#dfebfa"/></g><path d="m68.8 269.854c0-12.545 6.937-23.466 17.182-29.149-5.363-2.65-11.852-4.167-17.702-4.167-18.4 0-33.317 14.916-33.317 33.317s14.916 33.317 33.317 33.317c2.713 0 7.346-.332 9.871-.944.635-2.369 1.547-4.624 2.695-6.732-7.359-6.113-12.046-15.329-12.046-25.642z" fill="#b1dbfc"/><path d="m364.103 134.337h-216.213c-32.002 0-57.945 26.138-57.945 58.382v92.248c4.677-2.87 10.171-4.523 16.048-4.523h300.006c5.877 0 11.37 1.654 16.048 4.523v-92.248c0-32.244-25.942-58.382-57.944-58.382z" fill="#ffc20c"/><g><path d="m120.945 192.718c0-32.243 25.943-58.382 57.944-58.382h-31c-32.002 0-57.944 26.138-57.944 58.382v92.248c4.677-2.87 10.171-4.524 16.048-4.524h14.952z" fill="#ffa90f"/></g><path d="m364.103 160.46h-216.213c-17.683 0-32.017 14.443-32.017 32.259v87.724h280.247v-87.724c0-17.817-14.335-32.259-32.017-32.259z" fill="#60b8fe"/><path d="m176.817 160.46h-28.927c-17.683 0-32.017 14.443-32.017 32.259v87.724h28.927v-87.724c0-17.817 14.334-32.259 32.017-32.259z" fill="#23a8fe"/><path d="m369.727 280.443c.181-1.845.282-3.713.282-5.607 0-32.074-25.807-58.076-57.641-58.076s-57.641 26.001-57.641 58.076c0 1.893.102 3.761.282 5.607h26.041c-.321-1.821-.496-3.693-.496-5.607 0-17.703 14.243-32.054 31.814-32.054 17.57 0 31.814 14.351 31.814 32.054 0 1.914-.176 3.785-.496 5.607z" fill="#23a8fe"/><g><g><path d="m289.295 252.781c6.746-16.539 20.844-29.241 38.2-33.986-4.822-1.318-9.89-2.035-15.127-2.035-31.834 0-57.64 26.001-57.64 58.076 0 1.893.102 3.761.282 5.606h26.041c-.321-1.821-.497-3.693-.497-5.606.001-8.548 3.328-16.309 8.741-22.055z" fill="#0193fa"/></g></g><path d="m405.999 279.348h-300.006c-17.066 0-30.9 13.834-30.9 30.9v112.317h129.474l-.001.001c2.033-2.72 5.268-4.497 8.905-4.497h84.051c3.637 0 6.871 1.776 8.904 4.495h130.473c0-21.004 0-85.161 0-112.317 0-17.064-13.834-30.899-30.9-30.899z" fill="#ffd301"/><g><g><path d="m147.611 279.348h-41.618c-17.066 0-30.9 13.834-30.9 30.9v112.317h41.618c0-21.669 0-88.599 0-112.317 0-17.065 13.834-30.9 30.9-30.9z" fill="#ffc20c"/></g></g><path d="m443.192 379.311v-9.68c0-6.845-5.6-12.445-12.445-12.445h-60.152c-6.845 0-12.445 5.6-12.445 12.445v9.68c0 6.845 5.6 12.445 12.445 12.445h60.152c6.845 0 12.445-5.6 12.445-12.445z" fill="#23a8fe"/><path d="m387.817 379.311v-9.679c0-6.844 5.601-12.445 12.445-12.445h-29.667c-6.845 0-12.445 5.601-12.445 12.445v9.679c0 6.845 5.6 12.445 12.445 12.445h29.667c-6.845 0-12.445-5.6-12.445-12.445z" fill="#0193fa"/><path d="m443.192 379.311v-9.679c0-6.844-5.6-12.445-12.445-12.445h-8.13c-6.845 0-12.445 5.601-12.445 12.445v9.679c0 6.845 5.6 12.445 12.445 12.445h8.13c6.845 0 12.445-5.6 12.445-12.445z" fill="#ff4756"/><path d="m153.842 379.311v-9.68c0-6.845-5.6-12.445-12.445-12.445h-60.152c-6.845 0-12.445 5.6-12.445 12.445v9.68c0 6.845 5.6 12.445 12.445 12.445h60.152c6.845 0 12.445-5.6 12.445-12.445z" fill="#23a8fe"/><path d="m115.873 379.311v-9.679c0-6.844 5.6-12.445 12.445-12.445h-47.073c-6.845 0-12.445 5.601-12.445 12.445v9.679c0 6.845 5.6 12.445 12.445 12.445h47.073c-6.845 0-12.445-5.6-12.445-12.445z" fill="#0193fa"/><path d="m101.82 379.311v-9.679c0-6.844-5.6-12.445-12.445-12.445h-8.13c-6.845 0-12.445 5.601-12.445 12.445v9.679c0 6.845 5.6 12.445 12.445 12.445h8.13c6.845 0 12.445-5.6 12.445-12.445z" fill="#fc2d39"/><path d="m316.148 385.476h-120.303c-6.845 0-12.445 5.6-12.445 12.445v25.644h21.167l-.001.001c2.033-2.72 5.268-4.497 8.905-4.497h84.051c3.637 0 6.871 1.776 8.904 4.495h22.167v-25.644c0-6.844-5.6-12.444-12.445-12.444z" fill="#665e68"/><g><g><path d="m236.552 397.921c0-6.845 5.6-12.445 12.445-12.445h-53.153c-6.845 0-12.445 5.6-12.445 12.445v25.644h21.167l-.001.001c2.033-2.72 5.268-4.497 8.905-4.497h23.081v-21.148z" fill="#544e55"/></g></g><g><path d="m348.778 451.335v39.801c0 7.5 6.137 13.637 13.637 13.637h60.348c7.5 0 13.637-6.137 13.637-13.637v-39.801z" fill="#665e68"/></g><g><path d="m75.593 451.335v39.801c0 7.5 6.137 13.637 13.637 13.637h60.348c7.5 0 13.637-6.137 13.637-13.637v-39.801z" fill="#665e68"/></g><path d="m389.058 491.137v-39.801h-40.28v39.801c0 7.5 6.137 13.637 13.637 13.637h40.28c-7.5 0-13.637-6.137-13.637-13.637z" fill="#544e55"/><path d="m115.873 491.137v-39.801h-40.28v39.801c0 7.5 6.137 13.637 13.637 13.637h40.28c-7.501 0-13.637-6.137-13.637-13.637z" fill="#544e55"/><path d="m205.844 447.703v-21.506c0-2.483.834-4.775 2.223-6.632h-138.018c-6.12 0-11.127 5.007-11.127 11.127v12.516c0 6.12 5.007 11.127 11.127 11.127h138.017c-1.388-1.856-2.222-4.148-2.222-6.632z" fill="#dfebfa"/><path d="m106.144 443.208v-12.516c0-6.12 5.007-11.127 11.127-11.127h-47.222c-6.12 0-11.127 5.007-11.127 11.127v12.516c0 6.12 5.007 11.127 11.127 11.127h47.221c-6.119.001-11.126-5.007-11.126-11.127z" fill="#b1dbfc"/><path d="m441.943 419.565h-138.017c1.389 1.857 2.223 4.149 2.223 6.632v21.506c0 2.483-.834 4.775-2.223 6.632h138.017c6.12 0 11.127-5.007 11.127-11.127v-12.516c0-6.12-5.007-11.127-11.127-11.127z" fill="#dfebfa"/><path d="m298.022 458.831h-84.051c-6.12 0-11.127-5.007-11.127-11.127v-21.506c0-6.12 5.007-11.127 11.127-11.127h84.051c6.12 0 11.127 5.007 11.127 11.127v21.506c0 6.119-5.007 11.127-11.127 11.127z" fill="#b1dbfc"/><path d="m250.773 447.703v-21.506c0-6.12 5.007-11.127 11.127-11.127h-47.93c-6.12 0-11.127 5.007-11.127 11.127v21.506c0 6.12 5.007 11.127 11.127 11.127h47.93c-6.12.001-11.127-5.007-11.127-11.127z" fill="#8bcaff"/></g><g fill="#050402"><path d="m323.782 349.412h-135.56c-4.143 0-7.5 3.357-7.5 7.5s3.357 7.5 7.5 7.5h135.561c4.143 0 7.5-3.357 7.5-7.5s-3.358-7.5-7.501-7.5z"/><path d="m323.782 324.176h-135.56c-4.143 0-7.5 3.357-7.5 7.5s3.357 7.5 7.5 7.5h135.561c4.143 0 7.5-3.357 7.5-7.5s-3.358-7.5-7.501-7.5z"/><path d="m323.782 298.94h-135.56c-4.143 0-7.5 3.357-7.5 7.5s3.357 7.5 7.5 7.5h135.561c4.143 0 7.5-3.357 7.5-7.5s-3.358-7.5-7.501-7.5z"/><path d="m477.047 246.061v-76.998c0-4.143-3.357-7.5-7.5-7.5s-7.5 3.357-7.5 7.5v64.033c-9.919-4.989-21.72-5.783-32.493-1.791v-39.298c0-36.086-29.358-65.444-65.444-65.444h-216.215c-36.086 0-65.444 29.358-65.444 65.444v39.298c-10.998-4.075-22.81-3.079-32.493 1.791v-185.344h412.089v86.311c0 4.143 3.357 7.5 7.5 7.5s7.5-3.357 7.5-7.5c0-23.265 0-88.626 0-113.525 0-11.325-9.213-20.538-20.537-20.538h-401.015c-11.324 0-20.537 9.213-20.537 20.537v225.522c-9.984 14.105-9.997 32.917 0 47.04v78.002c0 11.324 9.213 20.537 20.537 20.537h10.313c.552.675 1.157 1.302 1.792 1.9v18.434c-9.111 1.209-16.171 9.01-16.171 18.446v12.517c0 9.609 7.316 17.541 16.67 18.522v29.406c0 11.655 9.482 21.138 21.138 21.138h60.347c11.655 0 21.138-9.482 21.138-21.138v-29.301h31.155c3.259 2.795 7.482 4.495 12.101 4.495h24.525c4.143 0 7.5-3.357 7.5-7.5s-3.357-7.5-7.5-7.5h-24.525c-2.054 0-3.627-1.788-3.627-3.627v-21.507c0-1.916 1.641-3.627 3.627-3.627h83.552c2.184 0 3.386 1.165 3.962 2.625.04.133.165.438.165 1.002v21.507c0 1.833-1.569 3.627-3.628 3.627h-24.525c-4.143 0-7.5 3.357-7.5 7.5s3.357 7.5 7.5 7.5h24.525c4.62 0 8.843-1.7 12.102-4.495h31.155v29.301c0 11.655 9.481 21.138 21.137 21.138h60.348c11.655 0 21.137-9.482 21.137-21.138v-29.406c9.354-.981 16.671-8.912 16.671-18.522v-12.517c0-9.436-7.06-17.237-16.171-18.446v-18.434c.634-.597 1.239-1.224 1.791-1.899h10.313c11.324 0 20.537-9.213 20.537-20.537v-78.003c4.709-6.654 7.488-14.765 7.488-23.519-.002-8.754-2.781-16.866-7.49-23.519zm-35.554 49.227c-2.454-5.932-6.522-11.456-11.939-15.653v-31.602c17.358-11.414 39.981 1.284 39.981 21.546 0 15.168-13.028 27.021-28.042 25.709zm-125.339 82.413h-120.304c-10.998 0-19.945 8.947-19.945 19.945v14.145h-93.305v-12.809c83.938-.001 46.553-.001 58.804-.001 10.998 0 19.945-8.947 19.945-19.944v-9.68c0-10.998-8.947-19.945-19.945-19.945-10.994 0-46.352 0-58.804 0v-39.438c0-13.109 10.699-23.399 23.399-23.399h300.007c12.85 0 23.399 10.459 23.399 23.399v39.438c-11.52 0-44.855 0-58.804 0-10.998 0-19.945 8.947-19.945 19.945v9.68c0 10.997 8.947 19.944 19.945 19.944 7.434 0 42.917.001 58.804.001v12.809h-93.305v-14.145c0-10.998-8.948-19.945-19.946-19.945zm-273.685-108.121c0-20.286 22.625-32.966 39.982-21.546v31.602c-5.442 4.216-9.491 9.743-11.939 15.652-15.119 1.313-28.043-10.65-28.043-25.708zm66.211 94.832h32.723c2.681 0 4.945 2.265 4.945 4.945v9.68c0 2.68-2.265 4.944-4.945 4.944h-32.723c.406-1.584.646-3.235.646-4.944v-9.68c0-1.709-.239-3.36-.646-4.945zm-14.354 4.945v9.68c0 2.677-2.26 4.939-4.936 4.944h-8.139c-2.677 0-4.944-2.289-4.944-4.944v-9.68c0-2.643 2.258-4.945 4.944-4.945h8.13c2.68 0 4.945 2.265 4.945 4.945zm294.3-97.783h-11.159c-1.03-35.025-29.823-63.205-65.093-63.205-35.269 0-64.061 28.18-65.091 63.205h-123.904v-79.567c0-13.519 10.998-24.517 24.517-24.517h216.213c13.52 0 24.518 10.998 24.518 24.517v79.567zm-100.482 0c.991-12.504 11.475-22.378 24.229-22.378 12.755 0 23.24 9.874 24.23 22.378zm24.23-37.378c-21.029 0-38.255 16.595-39.267 37.378h-10.836c1.021-26.754 23.104-48.205 50.103-48.205 27 0 49.084 21.451 50.104 48.205h-10.837c-1.011-20.783-18.238-37.378-39.267-37.378zm90.95 149.785h-32.723c-2.681 0-4.945-2.265-4.945-4.944v-9.68c0-2.681 2.265-4.945 4.945-4.945h32.723c-.406 1.585-.646 3.236-.646 4.945v9.68c.001 1.71.24 3.36.646 4.944zm14.355-4.944v-9.68c0-2.681 2.265-4.945 4.945-4.945h8.129c2.272 0 4.407 1.693 4.854 4.066.054.287.092.579.092.879v9.68c0 2.664-2.278 4.944-4.945 4.944h-8.138c-2.678-.005-4.937-2.266-4.937-4.944zm-320.228-187.03c0-27.815 22.629-50.444 50.444-50.444h216.214c27.815 0 50.444 22.629 50.444 50.444v80.527c-.721-.165-2.236-.46-3.744-.649-3.119-.391-4.736-.297-7.184-.311v-79.567c0-21.789-17.728-39.517-39.518-39.517h-216.212c-21.789 0-39.517 17.728-39.517 39.517v79.567c-3.165.058-6.214-.117-10.928.96.001-15.735.001-65.432.001-80.527zm-47.493-171.47c0-3.053 2.484-5.537 5.537-5.537h401.015c3.053 0 5.537 2.484 5.537 5.537v12.215h-412.089zm0 350.565v-65.037c5.461 2.746 11.665 4.228 17.642 4.326v44.461c-.012.011-.023.025-.035.036-3.894 3.685-6.258 8.844-6.258 14.469v7.281h-5.812c-3.053.001-5.537-2.484-5.537-5.536zm16.471 71.833v-12.517c0-1.966 1.661-3.627 3.627-3.627 19.028 0 112.922.001 125.294.001v19.77c-31.42 0-98.918 0-125.294 0-1.966 0-3.627-1.662-3.627-3.627zm89.292 47.927c0 3.385-2.753 6.138-6.138 6.138h-60.347c-3.385 0-6.138-2.753-6.138-6.138v-29.301h72.622v29.301zm57.756-83.566c-4.444 0-8.743 1.634-12.091 4.495h-10.481v-14.145c0-2.681 2.265-4.945 4.945-4.945h120.304c2.681 0 4.945 2.265 4.945 4.945v14.145h-10.97c-5.938-5.092-12.302-4.441-12.601-4.495-10.401 0-73.472 0-84.051 0zm215.428 83.566c0 3.385-2.753 6.138-6.137 6.138h-60.348c-3.384 0-6.137-2.753-6.137-6.138v-29.301h72.621v29.301zm16.671-60.444v12.517c0 1.966-1.661 3.627-3.627 3.627-25.376 0-98.458 0-125.294 0v-19.771h125.294c1.966 0 3.627 1.661 3.627 3.627zm16.471-59.316c0 3.053-2.484 5.537-5.537 5.537h-5.812v-7.281c0-5.697-2.414-10.831-6.257-14.469-.012-.012-.023-.026-.036-.037v-44.461c5.923-.097 12.131-1.556 17.642-4.326z"/></g></g></svg>